<svg xmlns="http://www.w3.org/2000/svg" width="80" height="110" viewBox="0 0 80 110"><polygon points="21.0,87.6 37.2,79.5 59.3,82.5 65.2,93.6 67.1,105.4 65.4,107.7 63.8,108.4 61.7,108.2 54.1,107.1 26.9,98.7" fill="#243b30" opacity=".20"/><polygon points="50.4,64.7 62.1,80.8 56.2,69.8" fill="#3d7348" stroke="#3d7348" stroke-width=".35" stroke-linejoin="round"/><polygon points="36.2,62.8 40.0,68.2 50.4,64.7" fill="#488654" stroke="#488654" stroke-width=".35" stroke-linejoin="round"/><polygon points="40.0,85.3 45.9,88.0 43.8,83.4" fill="#533c26" stroke="#533c26" stroke-width=".35" stroke-linejoin="round"/><polygon points="34.1,88.0 40.0,85.3 36.2,83.4" fill="#543d26" stroke="#543d26" stroke-width=".35" stroke-linejoin="round"/><polygon points="40.0,85.3 34.1,88.0 40.0,91.0" fill="#543d26" stroke="#543d26" stroke-width=".35" stroke-linejoin="round"/><polygon points="45.9,88.0 40.0,85.3 40.0,91.0" fill="#533c26" stroke="#533c26" stroke-width=".35" stroke-linejoin="round"/><polygon points="40.0,68.2 36.2,62.8 36.6,69.9" fill="#488654" stroke="#488654" stroke-width=".35" stroke-linejoin="round"/><polygon points="40.0,79.7 43.8,83.4 43.6,77.8" fill="#533c26" stroke="#533c26" stroke-width=".35" stroke-linejoin="round"/><polygon points="36.2,83.4 40.0,79.7 36.4,77.8" fill="#4e3923" stroke="#4e3923" stroke-width=".35" stroke-linejoin="round"/><polygon points="43.8,83.4 40.0,79.7 40.0,85.3" fill="#533c26" stroke="#533c26" stroke-width=".35" stroke-linejoin="round"/><polygon points="40.0,79.7 36.2,83.4 40.0,85.3" fill="#4e3923" stroke="#4e3923" stroke-width=".35" stroke-linejoin="round"/><polygon points="50.4,64.7 40.0,68.2 43.4,69.9" fill="#488654" stroke="#488654" stroke-width=".35" stroke-linejoin="round"/><polygon points="29.6,75.1 36.2,62.8 25.8,68.0" fill="#488654" stroke="#488654" stroke-width=".35" stroke-linejoin="round"/><polygon points="50.4,64.7 43.4,69.9 54.2,71.8" fill="#488654" stroke="#488654" stroke-width=".35" stroke-linejoin="round"/><polygon points="62.1,80.8 50.4,64.7 54.2,71.8" fill="#3d7348" stroke="#3d7348" stroke-width=".35" stroke-linejoin="round"/><polygon points="17.9,74.9 29.6,75.1 25.8,68.0" fill="#417a4c" stroke="#417a4c" stroke-width=".35" stroke-linejoin="round"/><polygon points="36.2,62.8 29.6,75.1 36.6,69.9" fill="#488654" stroke="#488654" stroke-width=".35" stroke-linejoin="round"/><polygon points="37.0,50.9 40.0,55.0 48.2,52.4" fill="#488654" stroke="#488654" stroke-width=".35" stroke-linejoin="round"/><polygon points="40.0,66.9 43.4,69.9 43.3,65.3" fill="#533c26" stroke="#533c26" stroke-width=".35" stroke-linejoin="round"/><polygon points="36.6,69.9 40.0,66.9 36.7,65.3" fill="#4e3923" stroke="#4e3923" stroke-width=".35" stroke-linejoin="round"/><polygon points="43.4,69.9 40.0,66.9 40.0,71.6" fill="#533c26" stroke="#533c26" stroke-width=".35" stroke-linejoin="round"/><polygon points="40.0,66.9 36.6,69.9 40.0,71.6" fill="#4e3923" stroke="#4e3923" stroke-width=".35" stroke-linejoin="round"/><polygon points="29.6,75.1 17.9,74.9 23.8,85.9" fill="#417a4c" stroke="#417a4c" stroke-width=".35" stroke-linejoin="round"/><polygon points="40.0,55.0 37.0,50.9 36.9,56.5" fill="#488654" stroke="#488654" stroke-width=".35" stroke-linejoin="round"/><polygon points="36.6,69.9 29.6,75.1 40.0,71.6" fill="#488654" stroke="#488654" stroke-width=".35" stroke-linejoin="round"/><polygon points="48.2,52.4 40.0,55.0 43.1,56.5" fill="#488654" stroke="#488654" stroke-width=".35" stroke-linejoin="round"/><polygon points="40.0,71.6 43.8,77.0 43.4,69.9" fill="#488654" stroke="#488654" stroke-width=".35" stroke-linejoin="round"/><polygon points="54.2,71.8 43.4,69.9 43.8,77.0" fill="#488654" stroke="#488654" stroke-width=".35" stroke-linejoin="round"/><polygon points="43.8,77.0 62.1,80.8 54.2,71.8" fill="#386941" stroke="#386941" stroke-width=".35" stroke-linejoin="round"/><polygon points="31.8,60.6 37.0,50.9 28.7,55.0" fill="#488654" stroke="#488654" stroke-width=".35" stroke-linejoin="round"/><polygon points="48.2,52.4 43.1,56.5 51.3,58.0" fill="#488654" stroke="#488654" stroke-width=".35" stroke-linejoin="round"/><polygon points="23.7,63.1 31.8,60.6 28.7,55.0" fill="#3d7247" stroke="#3d7247" stroke-width=".35" stroke-linejoin="round"/><polygon points="37.0,50.9 31.8,60.6 36.9,56.5" fill="#488654" stroke="#488654" stroke-width=".35" stroke-linejoin="round"/><polygon points="40.0,71.6 29.6,75.1 43.8,77.0" fill="#488654" stroke="#488654" stroke-width=".35" stroke-linejoin="round"/><polygon points="31.8,60.6 23.7,63.1 28.1,71.3" fill="#3d7247" stroke="#3d7247" stroke-width=".35" stroke-linejoin="round"/><polygon points="62.1,80.8 43.8,77.0 45.9,88.9" fill="#386941" stroke="#386941" stroke-width=".35" stroke-linejoin="round"/><polygon points="40.0,42.1 46.6,40.2 37.6,39.0" fill="#488654" stroke="#488654" stroke-width=".35" stroke-linejoin="round"/><polygon points="23.8,85.9 43.8,77.0 29.6,75.1" fill="#396b43" stroke="#396b43" stroke-width=".35" stroke-linejoin="round"/><polygon points="43.1,56.5 40.0,53.4 40.0,58.0" fill="#533c26" stroke="#533c26" stroke-width=".35" stroke-linejoin="round"/><polygon points="40.0,53.4 36.9,56.5 40.0,58.0" fill="#4e3923" stroke="#4e3923" stroke-width=".35" stroke-linejoin="round"/><polygon points="40.0,53.4 43.1,56.5 42.9,51.9" fill="#533c26" stroke="#533c26" stroke-width=".35" stroke-linejoin="round"/><polygon points="36.9,56.5 40.0,53.4 37.1,51.9" fill="#4e3923" stroke="#4e3923" stroke-width=".35" stroke-linejoin="round"/><polygon points="36.9,56.5 31.8,60.6 40.0,58.0" fill="#488654" stroke="#488654" stroke-width=".35" stroke-linejoin="round"/><polygon points="43.0,62.2 56.3,67.5 51.3,58.0" fill="#33603c" stroke="#33603c" stroke-width=".35" stroke-linejoin="round"/><polygon points="51.3,58.0 43.1,56.5 43.0,62.2" fill="#488654" stroke="#488654" stroke-width=".35" stroke-linejoin="round"/><polygon points="40.0,58.0 43.0,62.2 43.1,56.5" fill="#488654" stroke="#488654" stroke-width=".35" stroke-linejoin="round"/><polygon points="37.6,39.0 37.3,43.5 40.0,42.1" fill="#488654" stroke="#488654" stroke-width=".35" stroke-linejoin="round"/><polygon points="43.8,77.0 23.8,85.9 45.9,88.9" fill="#396b43" stroke="#396b43" stroke-width=".35" stroke-linejoin="round"/><polygon points="46.6,40.2 40.0,42.1 42.7,43.5" fill="#488654" stroke="#488654" stroke-width=".35" stroke-linejoin="round"/><polygon points="56.3,67.5 43.0,62.2 44.4,73.5" fill="#33603c" stroke="#33603c" stroke-width=".35" stroke-linejoin="round"/><polygon points="26.9,50.2 33.4,46.8 31.0,42.3" fill="#3c7046" stroke="#3c7046" stroke-width=".35" stroke-linejoin="round"/><polygon points="33.4,46.8 37.6,39.0 31.0,42.3" fill="#488654" stroke="#488654" stroke-width=".35" stroke-linejoin="round"/><polygon points="46.6,40.2 42.7,43.5 49.0,44.7" fill="#488654" stroke="#488654" stroke-width=".35" stroke-linejoin="round"/><polygon points="40.0,58.0 31.8,60.6 43.0,62.2" fill="#488654" stroke="#488654" stroke-width=".35" stroke-linejoin="round"/><polygon points="37.6,39.0 33.4,46.8 37.3,43.5" fill="#488654" stroke="#488654" stroke-width=".35" stroke-linejoin="round"/><polygon points="28.1,71.3 43.0,62.2 31.8,60.6" fill="#34613c" stroke="#34613c" stroke-width=".35" stroke-linejoin="round"/><polygon points="33.4,46.8 26.9,50.2 30.4,56.7" fill="#3c7046" stroke="#3c7046" stroke-width=".35" stroke-linejoin="round"/><polygon points="43.0,62.2 28.1,71.3 44.4,73.5" fill="#34613c" stroke="#34613c" stroke-width=".35" stroke-linejoin="round"/><polygon points="42.7,43.5 40.0,40.2 40.0,44.8" fill="#533c26" stroke="#533c26" stroke-width=".35" stroke-linejoin="round"/><polygon points="40.0,40.2 37.3,43.5 40.0,44.8" fill="#4e3923" stroke="#4e3923" stroke-width=".35" stroke-linejoin="round"/><polygon points="40.0,40.2 42.7,43.5 42.6,38.9" fill="#533c26" stroke="#533c26" stroke-width=".35" stroke-linejoin="round"/><polygon points="37.3,43.5 40.0,40.2 37.4,38.9" fill="#4e3923" stroke="#4e3923" stroke-width=".35" stroke-linejoin="round"/><polygon points="37.3,43.5 33.4,46.8 40.0,44.8" fill="#488654" stroke="#488654" stroke-width=".35" stroke-linejoin="round"/><polygon points="42.4,48.0 53.1,53.7 49.0,44.7" fill="#33603c" stroke="#33603c" stroke-width=".35" stroke-linejoin="round"/><polygon points="49.0,44.7 42.7,43.5 42.4,48.0" fill="#488654" stroke="#488654" stroke-width=".35" stroke-linejoin="round"/><polygon points="40.0,44.8 42.4,48.0 42.7,43.5" fill="#488654" stroke="#488654" stroke-width=".35" stroke-linejoin="round"/><polygon points="53.1,53.7 42.4,48.0 43.5,58.4" fill="#33603c" stroke="#33603c" stroke-width=".35" stroke-linejoin="round"/><polygon points="40.0,27.3 44.4,26.3 38.4,25.5" fill="#488654" stroke="#488654" stroke-width=".35" stroke-linejoin="round"/><polygon points="40.0,44.8 33.4,46.8 42.4,48.0" fill="#488654" stroke="#488654" stroke-width=".35" stroke-linejoin="round"/><polygon points="30.4,56.7 42.4,48.0 33.4,46.8" fill="#325e3b" stroke="#325e3b" stroke-width=".35" stroke-linejoin="round"/><polygon points="42.4,48.0 30.4,56.7 43.5,58.4" fill="#325e3b" stroke="#325e3b" stroke-width=".35" stroke-linejoin="round"/><polygon points="38.4,25.5 37.7,28.5 40.0,27.3" fill="#488654" stroke="#488654" stroke-width=".35" stroke-linejoin="round"/><polygon points="29.3,37.4 35.6,30.7 34.0,27.7" fill="#3b6f45" stroke="#3b6f45" stroke-width=".35" stroke-linejoin="round"/><polygon points="44.4,26.3 40.0,27.3 42.3,28.5" fill="#488654" stroke="#488654" stroke-width=".35" stroke-linejoin="round"/><polygon points="35.6,30.7 29.3,37.4 32.2,42.8" fill="#3b6f45" stroke="#3b6f45" stroke-width=".35" stroke-linejoin="round"/><polygon points="35.6,30.7 38.4,25.5 34.0,27.7" fill="#488654" stroke="#488654" stroke-width=".35" stroke-linejoin="round"/><polygon points="44.4,26.3 42.3,28.5 46.0,29.3" fill="#488654" stroke="#488654" stroke-width=".35" stroke-linejoin="round"/><polygon points="38.4,25.5 35.6,30.7 37.7,28.5" fill="#488654" stroke="#488654" stroke-width=".35" stroke-linejoin="round"/><polygon points="41.6,31.5 50.7,40.3 46.0,29.3" fill="#33603c" stroke="#33603c" stroke-width=".35" stroke-linejoin="round"/><polygon points="46.0,29.3 42.3,28.5 40.0,29.6" fill="#488654" stroke="#488654" stroke-width=".35" stroke-linejoin="round"/><polygon points="50.7,40.3 41.6,31.5 42.9,44.2" fill="#33603c" stroke="#33603c" stroke-width=".35" stroke-linejoin="round"/><polygon points="37.7,28.5 35.6,30.7 40.0,29.6" fill="#488654" stroke="#488654" stroke-width=".35" stroke-linejoin="round"/><polygon points="42.3,28.5 40.0,25.0 40.0,29.6" fill="#533c26" stroke="#533c26" stroke-width=".35" stroke-linejoin="round"/><polygon points="40.0,25.0 37.7,28.5 40.0,29.6" fill="#4e3923" stroke="#4e3923" stroke-width=".35" stroke-linejoin="round"/><polygon points="40.0,25.0 42.3,28.5 42.2,23.9" fill="#533c26" stroke="#533c26" stroke-width=".35" stroke-linejoin="round"/><polygon points="37.7,28.5 40.0,25.0 37.8,23.9" fill="#4e3923" stroke="#4e3923" stroke-width=".35" stroke-linejoin="round"/><polygon points="46.0,29.3 40.0,29.6 41.6,31.5" fill="#488654" stroke="#488654" stroke-width=".35" stroke-linejoin="round"/><polygon points="41.6,31.5 32.2,42.8 42.9,44.2" fill="#325e3a" stroke="#325e3a" stroke-width=".35" stroke-linejoin="round"/><polygon points="32.2,42.8 41.6,31.5 35.6,30.7" fill="#325e3a" stroke="#325e3a" stroke-width=".35" stroke-linejoin="round"/><polygon points="40.0,29.6 35.6,30.7 41.6,31.5" fill="#488654" stroke="#488654" stroke-width=".35" stroke-linejoin="round"/><polygon points="38.5,12.8 32.5,22.9 34.5,26.6" fill="#3b6f45" stroke="#3b6f45" stroke-width=".35" stroke-linejoin="round"/><polygon points="32.5,22.9 38.5,12.8 37.9,11.7" fill="#3b6f45" stroke="#3b6f45" stroke-width=".35" stroke-linejoin="round"/><polygon points="47.5,24.9 40.6,13.0 42.0,27.6" fill="#33603c" stroke="#33603c" stroke-width=".35" stroke-linejoin="round"/><polygon points="40.6,13.0 47.5,24.9 42.1,12.3" fill="#33603c" stroke="#33603c" stroke-width=".35" stroke-linejoin="round"/><polygon points="39.4,11.0 38.5,12.8 41.5,11.2" fill="#488654" stroke="#488654" stroke-width=".35" stroke-linejoin="round"/><polygon points="38.5,12.8 39.4,11.0 37.9,11.7" fill="#488654" stroke="#488654" stroke-width=".35" stroke-linejoin="round"/><polygon points="40.6,13.0 34.5,26.6 42.0,27.6" fill="#325e3a" stroke="#325e3a" stroke-width=".35" stroke-linejoin="round"/><polygon points="41.5,11.2 40.6,13.0 42.1,12.3" fill="#488654" stroke="#488654" stroke-width=".35" stroke-linejoin="round"/><polygon points="34.5,26.6 40.6,13.0 38.5,12.8" fill="#325e3a" stroke="#325e3a" stroke-width=".35" stroke-linejoin="round"/><polygon points="41.5,11.2 38.5,12.8 40.6,13.0" fill="#488654" stroke="#488654" stroke-width=".35" stroke-linejoin="round"/></svg>